<svg xmlns="http://www.w3.org/2000/svg" viewBox="0 0 48 60" x="0px" y="0px"><path d="M36.05957,8.24023H11.93994c-2.04004,0-3.69971,1.66016-3.69971,3.7002v24.11914c0,2.04004,1.65967,3.7002,3.69971,3.7002h24.11963c2.04004,0,3.7002-1.66016,3.7002-3.7002V11.94043c0-2.04004-1.66016-3.7002-3.7002-3.7002Zm1.7002,27.81934c0,.9375-.7627,1.7002-1.7002,1.7002H11.93994c-.93701,0-1.69971-.7627-1.69971-1.7002V11.94043c0-.9375,.7627-1.7002,1.69971-1.7002h24.11963c.9375,0,1.7002,.7627,1.7002,1.7002v24.11914Zm-4.06543-22.47852c.26953,.26758,.41797,.63965,.4082,1.01953l-.22363,8.2998c-.0141,.55238-.47857,.98775-1.02734,.97266-.55176-.01562-.9873-.47461-.97266-1.02734l.16772-6.198-9.67944,9.67944c-.39062,.39062-1.02344,.39062-1.41406,0s-.39062-1.02344,0-1.41406l9.67944-9.67944-6.19849,.16772c-1.3106,.00709-1.36984-1.93905-.05367-2l8.29829-.22363c.37109-.00488,.74707,.13574,1.01562,.40332Z"/><text x="0" y="63" fill="#000000" font-size="5px" font-weight="bold" font-family="'Helvetica Neue', Helvetica, Arial-Unicode, Arial, Sans-serif">Created by Jessigue</text><text x="0" y="68" fill="#000000" font-size="5px" font-weight="bold" font-family="'Helvetica Neue', Helvetica, Arial-Unicode, Arial, Sans-serif">from the Noun Project</text></svg>